<?xml version="1.0" standalone="no"?>
<!DOCTYPE svg PUBLIC "-//W3C//DTD SVG 20010904//EN"
 "http://www.w3.org/TR/2001/REC-SVG-20010904/DTD/svg10.dtd">
<svg version="1.0" xmlns="http://www.w3.org/2000/svg"
 width="300.000000pt" height="300.000000pt" viewBox="0 0 300.000000 300.000000"
 preserveAspectRatio="xMidYMid meet">

<g transform="translate(0.000000,300.000000) scale(0.100000,-0.100000)"
fill="#000000" stroke="none">
<path d="M1174 2213 c-98 -98 -234 -367 -285 -565 -15 -59 -20 -104 -17 -157
3 -65 6 -76 31 -97 41 -35 70 -30 122 17 69 64 116 167 199 435 21 69 46 227
46 293 l0 54 26 -24 c29 -27 117 -158 159 -237 42 -78 42 -55 0 29 -50 99
-138 231 -176 263 -41 35 -62 33 -105 -11z"/>
<path d="M1751 2224 c-38 -31 -126 -164 -175 -261 -54 -108 -44 -101 28 20 63
106 130 197 145 197 4 0 11 -44 15 -97 17 -262 155 -627 260 -693 44 -26 69
-25 103 4 27 24 28 27 27 123 0 86 -5 111 -37 206 -44 128 -91 233 -154 340
-53 91 -137 187 -163 187 -10 0 -32 -12 -49 -26z"/>
<path d="M1482 1744 c-44 -135 -55 -196 -50 -267 4 -50 9 -64 32 -84 35 -30
68 -29 103 1 27 24 28 27 27 118 -1 80 -7 110 -40 212 l-40 120 -32 -100z"/>
</g>
</svg>
